{
	"accessors":[{
		"bufferView":0,
		"type":"SCALAR",
		"componentType":5123,
		"count":120,
		"byteOffset":0,
		"min":[0],
		"max":[43]
	},
	{
		"bufferView":1,
		"type":"VEC3",
		"componentType":5126,
		"count":44,
		"byteOffset":0,
		"min":[-165.0,
		-292.0,
		-1.0],
		"max":[165.0,
		292.0,
		1.0]
	},
	{
		"bufferView":1,
		"type":"VEC3",
		"componentType":5126,
		"count":44,
		"byteOffset":12,
		"min":[-0.9955000281333923,
		-0.9955313205718994,
		0.0],
		"max":[0.9955000281333923,
		0.9955313205718994,
		0.0]
	},
	{
		"bufferView":1,
		"type":"VEC2",
		"componentType":5126,
		"count":44,
		"byteOffset":24,
		"min":[-0.03999999910593033,
		-0.03767123073339462],
		"max":[1.9600000381469727,
		2.0376710891723635]
	},
	{
		"bufferView":2,
		"type":"SCALAR",
		"componentType":5123,
		"count":54,
		"byteOffset":0,
		"min":[0],
		"max":[19]
	},
	{
		"bufferView":3,
		"type":"VEC3",
		"componentType":5126,
		"count":20,
		"byteOffset":0,
		"min":[-165.0,
		-292.0,
		-1.0],
		"max":[165.0,
		292.0,
		-1.0]
	},
	{
		"bufferView":3,
		"type":"VEC3",
		"componentType":5126,
		"count":20,
		"byteOffset":12,
		"min":[0.0,
		0.0,
		-1.0],
		"max":[0.0,
		0.0,
		-1.0]
	},
	{
		"bufferView":3,
		"type":"VEC2",
		"componentType":5126,
		"count":20,
		"byteOffset":24,
		"min":[0.0,
		0.0020000000949949028],
		"max":[1.0,
		1.0019999742507935]
	},
	{
		"bufferView":4,
		"type":"SCALAR",
		"componentType":5123,
		"count":54,
		"byteOffset":0,
		"min":[0],
		"max":[19]
	},
	{
		"bufferView":5,
		"type":"VEC3",
		"componentType":5126,
		"count":20,
		"byteOffset":0,
		"min":[-165.0,
		-292.0,
		1.0],
		"max":[165.0,
		292.0,
		1.0]
	},
	{
		"bufferView":5,
		"type":"VEC3",
		"componentType":5126,
		"count":20,
		"byteOffset":12,
		"min":[0.0,
		0.0,
		1.0],
		"max":[0.0,
		0.0,
		1.0]
	},
	{
		"bufferView":5,
		"type":"VEC2",
		"componentType":5126,
		"count":20,
		"byteOffset":24,
		"min":[0.0,
		0.0],
		"max":[1.0,
		1.0]
	}],
	"asset":{
		"version":"2.0",
		"generator":"Created using the official Cinema 4D glTF Exporter 1.000x284978"
	},
	"images":[{
		"uri":"data:image/jpeg;base64,"
	},
	{
		"uri":"data:image/jpeg;base64,"
	},
	{
		"uri":"data:image/jpeg;base64,"
	}],
	"scenes":[{
		"nodes":[0]
	}],
	"samplers":[{
		"magFilter":9729,
		"minFilter":9729,
		"wrapS":10497,
		"wrapT":10497
	},
	{
		"magFilter":9729,
		"minFilter":9729,
		"wrapS":10497,
		"wrapT":10497
	},
	{
		"magFilter":9729,
		"minFilter":9729,
		"wrapS":10497,
		"wrapT":10497
	}],
	"nodes":[{
		"name":"Fire",
		"children":[1,
		2,
		3]
	},
	{
		"name":"Fire-Chipboard",
		"mesh":0
	},
	{
		"name":"Fire-Fire",
		"mesh":1
	},
	{
		"name":"Fire-Back",
		"mesh":2
	}],
	"materials":[{
		"pbrMetallicRoughness":{
			"baseColorFactor":[0.02225128814902894,
			0.0036623067776456609,
			0.0482758620689655,
			1.0],
			"metallicFactor":0.04999999999999925,
			"roughnessFactor":0.4
		},
		"normalTexture":{
			"index":0,
			"scale":1.0
		},
		"emissiveFactor":[0.0,
		0.0,
		0.0],
		"alphaMode":"OPAQUE",
		"doubleSided":false,
		"name":"Chipboard"
	},
	{
		"pbrMetallicRoughness":{
			"baseColorTexture":{
				"index":1
			},
			"baseColorFactor":[0.970873786407767,
			0.9624314056563952,
			0.9497678345293373,
			1.0],
			"metallicFactor":0.9400000000000001,
			"roughnessFactor":0.26
		},
		"emissiveFactor":[0.0,
		0.0,
		0.0],
		"alphaMode":"OPAQUE",
		"doubleSided":false,
		"name":"Fire"
	},
	{
		"pbrMetallicRoughness":{
			"baseColorTexture":{
				"index":2
			},
			"baseColorFactor":[0.970873786407767,
			0.9624314056563952,
			0.9497678345293373,
			1.0],
			"metallicFactor":0.9400000000000001,
			"roughnessFactor":0.26
		},
		"emissiveFactor":[0.0,
		0.0,
		0.0],
		"alphaMode":"OPAQUE",
		"doubleSided":false,
		"name":"Back"
	}],
	"meshes":[{
		"name":"Fire-Chipboard",
		"primitives":[{
			"attributes":{
				"POSITION":1,
				"NORMAL":2,
				"TEXCOORD_0":3
			},
			"indices":0,
			"material":0
		}]
	},
	{
		"name":"Fire-Fire",
		"primitives":[{
			"attributes":{
				"POSITION":5,
				"NORMAL":6,
				"TEXCOORD_0":7
			},
			"indices":4,
			"material":1
		}]
	},
	{
		"name":"Fire-Back",
		"primitives":[{
			"attributes":{
				"POSITION":9,
				"NORMAL":10,
				"TEXCOORD_0":11
			},
			"indices":8,
			"material":2
		}]
	}],
	"bufferViews":[{
		"buffer":0,
		"byteOffset":0,
		"byteLength":240,
		"target":34963
	},
	{
		"buffer":0,
		"byteOffset":240,
		"byteLength":1408,
		"target":34962,
		"byteStride":32
	},
	{
		"buffer":1,
		"byteOffset":0,
		"byteLength":108,
		"target":34963
	},
	{
		"buffer":1,
		"byteOffset":108,
		"byteLength":640,
		"target":34962,
		"byteStride":32
	},
	{
		"buffer":2,
		"byteOffset":0,
		"byteLength":108,
		"target":34963
	},
	{
		"buffer":2,
		"byteOffset":108,
		"byteLength":640,
		"target":34962,
		"byteStride":32
	}],
	"buffers":[{
		"uri":"data:application/octet-stream;base64,",
		"byteLength":1648
	},
	{
		"uri":"data:application/octet-stream;base64,",
		"byteLength":748
	},
	{
		"uri":"data:application/octet-stream;base64,",
		"byteLength":748
	}],
	"textures":[{
		"sampler":0,
		"source":0
	},
	{
		"sampler":1,
		"source":1
	},
	{
		"sampler":2,
		"source":2
	}]
}