{
	"materials":[{
		"pbrMetallicRoughness":{
			"baseColorTexture":{
				"index":0
			},
			"baseColorFactor":[0.6402666762073832,
			0.0,
			0.7840000116825103,
			1.0],
			"metallicFactor":0.67,
			"roughnessFactor":0.11
		},
		"normalTexture":{
			"index":1,
			"scale":0.5
		},
		"occlusionTexture":{
			"index":2,
			"strength":0.1
		},
		"emissiveTexture":{
			"index":3
		},
		"emissiveFactor":[0.0,
		0.0,
		0.0],
		"alphaMode":"OPAQUE",
		"doubleSided":false,
		"name":"Pink GEM"
	}],
	"meshes":[{
		"name":"CircleGEM",
		"primitives":[{
			"attributes":{
				"POSITION":1,
				"NORMAL":2,
				"TEXCOORD_0":3
			},
			"indices":0,
			"material":0
		}]
	}],
	"asset":{
		"version":"2.0",
		"generator":"Created using the official Cinema 4D glTF Exporter 1.000x284978"
	},
	"images":[{
		"uri":"data:image/jpeg;base64,"
	},
	{
		"uri":"data:image/jpeg;base64,"
	},
	{
		"uri":"data:image/jpeg;base64,"
	},
	{
		"uri":"data:image/jpeg;base64,"
	}],
	"scenes":[{
		"nodes":[0]
	}],
	"nodes":[{
		"name":"CircleGEM",
		"translation":[0.0,
		1.9721522630525297e-31,
		0.0],
		"children":[1],
		"rotation":[0.5,
		-0.5,
		0.5,
		0.5],
		"scale":[100.0,
		100.0,
		100.0]
	},
	{
		"name":"CircleGEM",
		"mesh":0
	}],
	"accessors":[{
		"bufferView":0,
		"type":"SCALAR",
		"componentType":5123,
		"count":240,
		"byteOffset":0,
		"min":[0],
		"max":[85]
	},
	{
		"bufferView":1,
		"type":"VEC3",
		"componentType":5126,
		"count":86,
		"byteOffset":0,
		"min":[-0.2004290521144867,
		-0.3665226101875305,
		-0.3853846788406372],
		"max":[0.2004290521144867,
		0.3665226101875305,
		0.3853846788406372]
	},
	{
		"bufferView":1,
		"type":"VEC3",
		"componentType":5126,
		"count":86,
		"byteOffset":12,
		"min":[-1.0,
		-0.9788010716438294,
		-0.9510566592216492],
		"max":[1.0,
		0.9788010716438294,
		0.9941859841346741]
	},
	{
		"bufferView":1,
		"type":"VEC2",
		"componentType":5126,
		"count":86,
		"byteOffset":24,
		"min":[0.00019111903384327888,
		0.00646364688873291],
		"max":[0.9928099513053894,
		0.9998089075088501]
	}],
	"bufferViews":[{
		"buffer":0,
		"byteOffset":0,
		"byteLength":480,
		"target":34963
	},
	{
		"buffer":0,
		"byteOffset":480,
		"byteLength":2752,
		"target":34962,
		"byteStride":32
	}],
	"buffers":[{
		"uri":"data:application/octet-stream;base64,",
		"byteLength":3232
	}],
	"samplers":[{
		"magFilter":9729,
		"minFilter":9729,
		"wrapS":10497,
		"wrapT":10497
	},
	{
		"magFilter":9729,
		"minFilter":9729,
		"wrapS":10497,
		"wrapT":10497
	},
	{
		"magFilter":9729,
		"minFilter":9729,
		"wrapS":10497,
		"wrapT":10497
	},
	{
		"magFilter":9729,
		"minFilter":9729,
		"wrapS":10497,
		"wrapT":10497
	}],
	"textures":[{
		"sampler":0,
		"source":0
	},
	{
		"sampler":1,
		"source":1
	},
	{
		"sampler":2,
		"source":2
	},
	{
		"sampler":3,
		"source":3
	}]
}