{
	"materials":[{
		"pbrMetallicRoughness":{
			"baseColorTexture":{
				"index":0
			},
			"baseColorFactor":[0.0,
			1.0,
			1.0,
			1.0],
			"metallicFactor":0.9,
			"roughnessFactor":0.18
		},
		"normalTexture":{
			"index":1,
			"scale":0.5
		},
		"occlusionTexture":{
			"index":2,
			"strength":0.1
		},
		"emissiveTexture":{
			"index":3
		},
		"emissiveFactor":[0.0,
		0.0,
		0.0],
		"alphaMode":"OPAQUE",
		"doubleSided":false,
		"name":"bLUE GEM.1"
	}],
	"meshes":[{
		"name":"HexagonGem",
		"primitives":[{
			"attributes":{
				"POSITION":1,
				"NORMAL":2,
				"TEXCOORD_0":3
			},
			"indices":0,
			"material":0
		}]
	}],
	"asset":{
		"version":"2.0",
		"generator":"Created using the official Cinema 4D glTF Exporter 1.000x284978"
	},
	"images":[{
		"uri":"data:image/jpeg;base64,"
	},
	{
		"uri":"data:image/jpeg;base64,"
	},
	{
		"uri":"data:image/jpeg;base64,"
	},
	{
		"uri":"data:image/jpeg;base64,"
	}],
	"scenes":[{
		"nodes":[0]
	}],
	"nodes":[{
		"name":"HexagonGem",
		"translation":[1.5777218104420237e-30,
		-1.9721522630525297e-31,
		0.0],
		"rotation":[0.5,
		-0.5,
		0.5,
		0.5],
		"scale":[100.0,
		100.0,
		100.0],
		"mesh":0
	}],
	"accessors":[{
		"bufferView":0,
		"type":"SCALAR",
		"componentType":5123,
		"count":144,
		"byteOffset":0,
		"min":[0],
		"max":[49]
	},
	{
		"bufferView":1,
		"type":"VEC3",
		"componentType":5126,
		"count":50,
		"byteOffset":0,
		"min":[-0.24671636521816255,
		-0.40259331464767458,
		-0.4648747146129608],
		"max":[0.24671636521816255,
		0.40259331464767458,
		0.4648747146129608]
	},
	{
		"bufferView":1,
		"type":"VEC3",
		"componentType":5126,
		"count":50,
		"byteOffset":12,
		"min":[-1.0,
		-1.0,
		-0.8660253882408142],
		"max":[1.0,
		1.0,
		0.8660253882408142]
	},
	{
		"bufferView":1,
		"type":"VEC2",
		"componentType":5126,
		"count":50,
		"byteOffset":24,
		"min":[0.00020830921130254865,
		0.102466881275177],
		"max":[0.9997916221618652,
		0.9997916221618652]
	}],
	"bufferViews":[{
		"buffer":0,
		"byteOffset":0,
		"byteLength":288,
		"target":34963
	},
	{
		"buffer":0,
		"byteOffset":288,
		"byteLength":1600,
		"target":34962,
		"byteStride":32
	}],
	"buffers":[{
		"uri":"data:application/octet-stream;base64,",
		"byteLength":1888
	}],
	"samplers":[{
		"magFilter":9729,
		"minFilter":9729,
		"wrapS":10497,
		"wrapT":10497
	},
	{
		"magFilter":9729,
		"minFilter":9729,
		"wrapS":10497,
		"wrapT":10497
	},
	{
		"magFilter":9729,
		"minFilter":9729,
		"wrapS":10497,
		"wrapT":10497
	},
	{
		"magFilter":9729,
		"minFilter":9729,
		"wrapS":10497,
		"wrapT":10497
	}],
	"textures":[{
		"sampler":0,
		"source":0
	},
	{
		"sampler":1,
		"source":1
	},
	{
		"sampler":2,
		"source":2
	},
	{
		"sampler":3,
		"source":3
	}]
}