{
	"materials":[{
		"pbrMetallicRoughness":{
			"baseColorTexture":{
				"index":0
			},
			"baseColorFactor":[0.0,
			0.800000011920929,
			0.013333333532015435,
			1.0],
			"metallicFactor":1.0,
			"roughnessFactor":0.28
		},
		"normalTexture":{
			"index":1,
			"scale":0.1
		},
		"occlusionTexture":{
			"index":2,
			"strength":0.1
		},
		"emissiveTexture":{
			"index":3
		},
		"emissiveFactor":[0.0,
		0.0,
		0.0],
		"alphaMode":"OPAQUE",
		"doubleSided":false,
		"name":"Green GEM.1"
	}],
	"meshes":[{
		"name":"Square Gem",
		"primitives":[{
			"attributes":{
				"POSITION":1,
				"NORMAL":2,
				"TEXCOORD_0":3
			},
			"indices":0,
			"material":0
		}]
	}],
	"asset":{
		"version":"2.0",
		"generator":"Created using the official Cinema 4D glTF Exporter 1.000x284978"
	},
	"images":[{
		"uri":"data:image/jpeg;base64,"
	},
	{
		"uri":"data:image/jpeg;base64,"
	},
	{
		"uri":"data:image/jpeg;base64,"
	},
	{
		"uri":"data:image/jpeg;base64,"
	}],
	"scenes":[{
		"nodes":[0]
	}],
	"nodes":[{
		"name":"Square Gem",
		"translation":[0.34551239013671877,
		0.0,
		8.670218660183178e-16],
		"rotation":[0.5,
		0.5,
		0.5,
		-0.5],
		"scale":[100.0,
		100.0,
		100.0],
		"mesh":0
	}],
	"accessors":[{
		"bufferView":0,
		"type":"SCALAR",
		"componentType":5123,
		"count":84,
		"byteOffset":0,
		"min":[0],
		"max":[39]
	},
	{
		"bufferView":1,
		"type":"VEC3",
		"componentType":5126,
		"count":40,
		"byteOffset":0,
		"min":[-0.22837619483470918,
		-0.41868969798088076,
		-0.41868969798088076],
		"max":[0.22837619483470918,
		0.41868969798088076,
		0.41868969798088076]
	},
	{
		"bufferView":1,
		"type":"VEC3",
		"componentType":5126,
		"count":40,
		"byteOffset":12,
		"min":[-0.9603952765464783,
		-1.0,
		-1.0],
		"max":[0.9603952765464783,
		1.0,
		1.0]
	},
	{
		"bufferView":1,
		"type":"VEC2",
		"componentType":5126,
		"count":40,
		"byteOffset":24,
		"min":[0.00018645064847078174,
		0.04607146978378296],
		"max":[0.9998134970664978,
		0.9998135566711426]
	}],
	"bufferViews":[{
		"buffer":0,
		"byteOffset":0,
		"byteLength":168,
		"target":34963
	},
	{
		"buffer":0,
		"byteOffset":168,
		"byteLength":1280,
		"target":34962,
		"byteStride":32
	}],
	"buffers":[{
		"uri":"data:application/octet-stream;base64,",
		"byteLength":1448
	}],
	"samplers":[{
		"magFilter":9729,
		"minFilter":9729,
		"wrapS":10497,
		"wrapT":10497
	},
	{
		"magFilter":9729,
		"minFilter":9729,
		"wrapS":10497,
		"wrapT":10497
	},
	{
		"magFilter":9729,
		"minFilter":9729,
		"wrapS":10497,
		"wrapT":10497
	},
	{
		"magFilter":9729,
		"minFilter":9729,
		"wrapS":10497,
		"wrapT":10497
	}],
	"textures":[{
		"sampler":0,
		"source":0
	},
	{
		"sampler":1,
		"source":1
	},
	{
		"sampler":2,
		"source":2
	},
	{
		"sampler":3,
		"source":3
	}]
}