{
	"materials":[{
		"pbrMetallicRoughness":{
			"baseColorTexture":{
				"index":0
			},
			"baseColorFactor":[0.6402666762073832,
			0.0,
			0.7840000116825103,
			1.0],
			"metallicFactor":0.67,
			"roughnessFactor":0.11
		},
		"normalTexture":{
			"index":1,
			"scale":0.5
		},
		"occlusionTexture":{
			"index":2,
			"strength":0.1
		},
		"emissiveTexture":{
			"index":3
		},
		"emissiveFactor":[0.0,
		0.0,
		0.0],
		"alphaMode":"OPAQUE",
		"doubleSided":false,
		"name":"Fire GEM v3"
	}],
	"meshes":[{
		"name":"Triangle Gem",
		"primitives":[{
			"attributes":{
				"POSITION":1,
				"NORMAL":2,
				"TEXCOORD_0":3
			},
			"indices":0,
			"material":0
		}]
	}],
	"asset":{
		"version":"2.0",
		"generator":"Created using the official Cinema 4D glTF Exporter 1.000x284978"
	},
	"images":[{
		"uri":"data:image/jpeg;base64,"
	},
	{
		"uri":"data:image/jpeg;base64,"
	},
	{
		"uri":"data:image/jpeg;base64,"
	},
	{
		"uri":"data:image/jpeg;base64,"
	}],
	"scenes":[{
		"nodes":[0]
	}],
	"nodes":[{
		"name":"Triangle Gem",
		"translation":[-0.34551239013671877,
		8.613499641418457,
		9.176441548362606e-16],
		"rotation":[0.5055243372917175,
		0.5055243372917175,
		-0.49441394209861758,
		0.49441394209861758],
		"scale":[99.99998474121094,
		100.0,
		99.99998474121094],
		"mesh":0
	}],
	"accessors":[{
		"bufferView":0,
		"type":"SCALAR",
		"componentType":5123,
		"count":72,
		"byteOffset":0,
		"min":[0],
		"max":[43]
	},
	{
		"bufferView":1,
		"type":"VEC3",
		"componentType":5126,
		"count":44,
		"byteOffset":0,
		"min":[-0.22656428813934327,
		-0.4530879259109497,
		-0.26012906432151797],
		"max":[0.22656428813934327,
		0.4530867636203766,
		0.5197813510894775]
	},
	{
		"bufferView":1,
		"type":"VEC3",
		"componentType":5126,
		"count":44,
		"byteOffset":12,
		"min":[-1.0,
		-0.8646753430366516,
		-1.0],
		"max":[1.0,
		0.8646752834320068,
		0.5023313164710999]
	},
	{
		"bufferView":1,
		"type":"VEC2",
		"componentType":5126,
		"count":44,
		"byteOffset":24,
		"min":[0.00025929560069926083,
		0.0002593994140625],
		"max":[0.9389070868492127,
		0.999740719795227]
	}],
	"bufferViews":[{
		"buffer":0,
		"byteOffset":0,
		"byteLength":144,
		"target":34963
	},
	{
		"buffer":0,
		"byteOffset":144,
		"byteLength":1408,
		"target":34962,
		"byteStride":32
	}],
	"buffers":[{
		"uri":"data:application/octet-stream;base64,",
		"byteLength":1552
	}],
	"samplers":[{
		"magFilter":9729,
		"minFilter":9729,
		"wrapS":10497,
		"wrapT":10497
	},
	{
		"magFilter":9729,
		"minFilter":9729,
		"wrapS":10497,
		"wrapT":10497
	},
	{
		"magFilter":9729,
		"minFilter":9729,
		"wrapS":10497,
		"wrapT":10497
	},
	{
		"magFilter":9729,
		"minFilter":9729,
		"wrapS":10497,
		"wrapT":10497
	}],
	"textures":[{
		"sampler":0,
		"source":0
	},
	{
		"sampler":1,
		"source":1
	},
	{
		"sampler":2,
		"source":2
	},
	{
		"sampler":3,
		"source":3
	}]
}